<svg id="eb3hXVgn6OY1" xmlns="http://www.w3.org/2000/svg" xmlns:xlink="http://www.w3.org/1999/xlink" viewBox="0 0 1920 1080" shape-rendering="geometricPrecision" text-rendering="geometricPrecision" project-id="bf6eb76a53d04060aa49d83a35d49e15" export-id="4fb9d29caa5146b6be20822f8ff8535d" cached="false"><g transform="matrix(1.095547 0 0 1.095547-37.958128-69.430348)"><g transform="matrix(1.320306 0 0 1.320306-846.412154-383.630091)"><g transform="translate(370.882333 172.004431)"><rect width="784.770437" height="450" rx="0" ry="0" transform="matrix(.68835 0 0 1 689.901635 315)" fill="#d7ccc8" stroke-width="0"/><ellipse rx="241.209406" ry="189.329873" transform="matrix(.603295 0 0 1.188402 689.901635 540)" fill="#d7ccc8" stroke-width="0"/><ellipse rx="241.209406" ry="189.329873" transform="matrix(.603295 0 0 1.188402 1230.344404 539.766437)" fill="#d7ccc8" stroke-width="0"/></g></g><g transform="matrix(1.048979 0 0 1.048979-99.081884-10.323403)"><rect width="784.770437" height="450" rx="0" ry="0" transform="matrix(.68835 0 0 1 689.901635 315.587906)" fill="#388e3c" stroke-width="0"/><ellipse rx="241.209406" ry="189.329873" transform="matrix(.696379 0 0 1.188402 689.901635 540)" fill="#388e3c" stroke-width="0"/><ellipse rx="241.209406" ry="189.329873" transform="matrix(.696379 0 0 1.188402 1235.478343 540)" fill="#388e3c" stroke-width="0"/></g></g></svg>
